<?xml version="1.0" encoding="UTF-8"?>
<svg xmlns="http://www.w3.org/2000/svg" version="1.1" width="256px" height="256px" style="shape-rendering:geometricPrecision; text-rendering:geometricPrecision; image-rendering:optimizeQuality; fill-rule:evenodd; clip-rule:evenodd" xmlns:xlink="http://www.w3.org/1999/xlink">
<g><path style="opacity:0.972" fill="#00ff00" d="M 111.5,-0.5 C 122.167,-0.5 132.833,-0.5 143.5,-0.5C 197.548,8.7041 233.382,39.3708 251,91.5C 252.715,98.2585 254.215,104.925 255.5,111.5C 255.5,122.167 255.5,132.833 255.5,143.5C 246.296,197.548 215.629,233.382 163.5,251C 156.741,252.715 150.075,254.215 143.5,255.5C 132.833,255.5 122.167,255.5 111.5,255.5C 57.4517,246.296 21.6184,215.629 4,163.5C 2.28494,156.741 0.784944,150.075 -0.5,143.5C -0.5,132.833 -0.5,122.167 -0.5,111.5C 8.7041,57.4517 39.3708,21.6184 91.5,4C 98.2585,2.28494 104.925,0.784944 111.5,-0.5 Z M 54.5,77.5 C 102.998,76.335 151.665,76.1684 200.5,77C 178.167,99.3333 155.833,121.667 133.5,144C 129.5,144.667 125.5,144.667 121.5,144C 99.2986,121.632 76.9653,99.465 54.5,77.5 Z M 46.5,83.5 C 62.1457,98.479 77.479,113.812 92.5,129.5C 77.5141,144.986 62.3474,160.319 47,175.5C 46.5,144.835 46.3334,114.168 46.5,83.5 Z M 207.5,83.5 C 208.664,113.997 208.831,144.664 208,175.5C 192.653,160.319 177.486,144.986 162.5,129.5C 177.521,114.146 192.521,98.8126 207.5,83.5 Z M 99.5,136.5 C 105.298,141.797 110.965,147.297 116.5,153C 123.833,153.667 131.167,153.667 138.5,153C 144,147.5 149.5,142 155,136.5C 168.833,150.333 182.667,164.167 196.5,178C 150.5,178.667 104.5,178.667 58.5,178C 72.3686,164.299 86.0352,150.465 99.5,136.5 Z"/></g>
</svg>
