<?xml version="1.0" encoding="UTF-8"?>
<svg xmlns="http://www.w3.org/2000/svg" version="1.1" width="256px" height="256px" style="shape-rendering:geometricPrecision; text-rendering:geometricPrecision; image-rendering:optimizeQuality; fill-rule:evenodd; clip-rule:evenodd" xmlns:xlink="http://www.w3.org/1999/xlink">
<g><path style="opacity:0.969" fill="#faf9ff" d="M 255.5,114.5 C 255.5,125.5 255.5,136.5 255.5,147.5C 246.435,199.069 217.435,234.235 168.5,253C 165.15,253.93 162.317,253.097 160,250.5C 158.696,234.592 158.03,218.592 158,202.5C 156.921,196.749 154.421,191.749 150.5,187.5C 193.159,182.335 212.326,158.335 208,115.5C 206.1,105.536 201.933,96.7024 195.5,89C 199.117,77.7749 198.784,66.6082 194.5,55.5C 181.42,56.6378 169.753,61.3045 159.5,69.5C 138.163,62.834 116.829,62.834 95.5,69.5C 86.0505,62.1099 75.3838,57.4432 63.5,55.5C 62.5,55.8333 61.5,56.1667 60.5,56.5C 56.0577,67.2719 55.7243,78.1053 59.5,89C 48.5618,102.579 44.3952,118.079 47,135.5C 49.1181,159.586 61.6181,175.419 84.5,183C 91.1286,184.692 97.7952,186.192 104.5,187.5C 99.9806,192.715 96.9806,198.715 95.5,205.5C 77.2311,212.283 63.7311,206.95 55,189.5C 49.0795,182.769 41.9129,180.603 33.5,183C 38.2852,186.818 42.7852,190.985 47,195.5C 50.6031,201.707 53.9364,208.04 57,214.5C 62.1381,220.486 68.6381,223.986 76.5,225C 83.1843,225.546 89.8509,225.38 96.5,224.5C 96.6664,232.507 96.4997,240.507 96,248.5C 94.7343,251.635 92.401,253.302 89,253.5C 48.6068,240.108 20.9401,213.441 6,173.5C 3.48768,164.784 1.32102,156.117 -0.5,147.5C -0.5,136.5 -0.5,125.5 -0.5,114.5C 7.95629,64.8746 35.2896,30.0413 81.5,10C 131.799,-6.83662 176.799,2.16338 216.5,37C 238.158,58.482 251.158,84.3154 255.5,114.5 Z"/></g>
</svg>
