<?xml version="1.0" encoding="UTF-8"?>
<svg xmlns="http://www.w3.org/2000/svg" version="1.1" width="256px" height="256px" style="shape-rendering:geometricPrecision; text-rendering:geometricPrecision; image-rendering:optimizeQuality; fill-rule:evenodd; clip-rule:evenodd" xmlns:xlink="http://www.w3.org/1999/xlink">
<g><path style="opacity:0.986" fill="#056295" d="M 111.5,-0.5 C 122.167,-0.5 132.833,-0.5 143.5,-0.5C 197.548,8.7041 233.382,39.3708 251,91.5C 252.715,98.2585 254.215,104.925 255.5,111.5C 255.5,122.167 255.5,132.833 255.5,143.5C 246.296,197.548 215.629,233.382 163.5,251C 156.741,252.715 150.075,254.215 143.5,255.5C 132.833,255.5 122.167,255.5 111.5,255.5C 57.4517,246.296 21.6184,215.629 4,163.5C 2.28494,156.741 0.784944,150.075 -0.5,143.5C -0.5,132.833 -0.5,122.167 -0.5,111.5C 8.7041,57.4517 39.3708,21.6184 91.5,4C 98.2585,2.28494 104.925,0.784944 111.5,-0.5 Z"/></g>
<g><path style="opacity:1" fill="#000000" d="M 67.5,39.5 C 72.1524,38.984 75.6524,40.6507 78,44.5C 84.4782,64.0997 90.6449,83.7664 96.5,103.5C 117.167,103.5 137.833,103.5 158.5,103.5C 164.355,83.7664 170.522,64.0997 177,44.5C 179.983,39.4319 184.149,38.2652 189.5,41C 201.308,72.7576 212.142,104.924 222,137.5C 223.672,143.658 221.838,148.491 216.5,152C 187.5,173 158.5,194 129.5,215C 125.84,214.849 122.506,213.515 119.5,211C 92.6772,191.089 65.6772,171.422 38.5,152C 33.1617,148.491 31.3284,143.658 33,137.5C 43.1546,106.547 53.1546,75.5474 63,44.5C 64.0591,42.3408 65.5591,40.6741 67.5,39.5 Z"/></g>
</svg>
