<?xml version="1.0" encoding="UTF-8"?>
<svg xmlns="http://www.w3.org/2000/svg" version="1.1" width="256px" height="256px" style="shape-rendering:geometricPrecision; text-rendering:geometricPrecision; image-rendering:optimizeQuality; fill-rule:evenodd; clip-rule:evenodd" xmlns:xlink="http://www.w3.org/1999/xlink">
<g><path style="opacity:0.978" fill="#056295" d="M 111.5,-0.5 C 122.167,-0.5 132.833,-0.5 143.5,-0.5C 193.465,7.95083 228.298,35.6175 248,82.5C 251.216,92.1149 253.716,101.782 255.5,111.5C 255.5,121.833 255.5,132.167 255.5,142.5C 247.481,193.03 219.815,228.196 172.5,248C 162.905,251.314 153.238,253.814 143.5,255.5C 132.833,255.5 122.167,255.5 111.5,255.5C 67.3723,248.681 34.539,225.681 13,186.5C 11.719,180.199 14.219,177.365 20.5,178C 27.8333,181.667 35.1667,185.333 42.5,189C 51.8114,215.481 70.1448,226.148 97.5,221C 107.369,217.469 115.203,211.302 121,202.5C 124.538,194.48 127.372,186.314 129.5,178C 141.5,168.333 153.5,158.667 165.5,149C 193.89,145.111 209.557,128.944 212.5,100.5C 208.047,68.545 189.714,53.045 157.5,54C 136.118,58.3822 122.951,71.2155 118,92.5C 117.667,96.8333 117.333,101.167 117,105.5C 109.333,115.833 101.667,126.167 94,136.5C 85.4427,137.732 76.9427,139.565 68.5,142C 64.6641,144.084 60.9974,146.417 57.5,149C 53.5983,149.738 49.9316,149.072 46.5,147C 30.7766,139.802 15.1099,132.636 -0.5,125.5C -0.5,120.5 -0.5,115.5 -0.5,110.5C 11.6079,48.0588 48.9413,11.0588 111.5,-0.5 Z"/></g>
<g><path style="opacity:0.957" fill="#056295" d="M 160.5,73.5 C 183.289,74.1238 193.455,85.7905 191,108.5C 185.082,123.88 173.916,130.047 157.5,127C 143.28,121.778 136.78,111.612 138,96.5C 141.015,84.3193 148.515,76.6526 160.5,73.5 Z"/></g>
<g><path style="opacity:0.892" fill="#056295" d="M 86.5,153.5 C 105.499,157.478 113.666,169.145 111,188.5C 103.123,206.463 89.9558,211.963 71.5,205C 68.0933,203.261 65.76,200.594 64.5,197C 65.1722,193.323 67.3389,191.49 71,191.5C 74.4517,192.91 77.9517,194.41 81.5,196C 92.5608,196.936 98.8941,191.936 100.5,181C 99.1983,171.698 93.865,166.365 84.5,165C 80.3782,160.39 81.0449,156.557 86.5,153.5 Z"/></g>
</svg>
