<?xml version="1.0" encoding="UTF-8"?>
<svg xmlns="http://www.w3.org/2000/svg" version="1.1" width="256px" height="256px" style="shape-rendering:geometricPrecision; text-rendering:geometricPrecision; image-rendering:optimizeQuality; fill-rule:evenodd; clip-rule:evenodd" xmlns:xlink="http://www.w3.org/1999/xlink">
<g><path fill="#00ff00" d="M 111.5,-0.5 C 122.167,-0.5 132.833,-0.5 143.5,-0.5C 197.548,8.7041 233.382,39.3708 251,91.5C 252.715,98.2585 254.215,104.925 255.5,111.5C 255.5,122.167 255.5,132.833 255.5,143.5C 246.296,197.548 215.629,233.382 163.5,251C 156.741,252.715 150.075,254.215 143.5,255.5C 132.833,255.5 122.167,255.5 111.5,255.5C 57.4517,246.296 21.6184,215.629 4,163.5C 2.28494,156.741 0.784944,150.075 -0.5,143.5C -0.5,132.833 -0.5,122.167 -0.5,111.5C 8.7041,57.4517 39.3708,21.6184 91.5,4C 98.2585,2.28494 104.925,0.784944 111.5,-0.5 Z M 174.5,77.5 C 181.968,75.3793 185.968,78.046 186.5,85.5C 182.425,116.285 177.591,146.952 172,177.5C 171.416,183.176 168.916,187.676 164.5,191C 161.015,191.297 157.682,190.631 154.5,189C 141.167,180 127.833,171 114.5,162C 111.767,160.269 109.767,157.936 108.5,155C 109.278,152.61 110.445,150.443 112,148.5C 125.333,135.833 138.667,123.167 152,110.5C 153.505,108.702 153.672,106.868 152.5,105C 149.983,104.743 147.65,105.41 145.5,107C 126.31,120.427 106.643,133.094 86.5,145C 73.1815,145.045 60.6815,141.879 49,135.5C 49.1495,131.984 50.9828,129.484 54.5,128C 94.2438,110.287 134.244,93.4538 174.5,77.5 Z"/></g>
</svg>
