<?xml version="1.0" encoding="UTF-8"?>
<svg xmlns="http://www.w3.org/2000/svg" version="1.1" width="256px" height="256px" style="shape-rendering:geometricPrecision; text-rendering:geometricPrecision; image-rendering:optimizeQuality; fill-rule:evenodd; clip-rule:evenodd" xmlns:xlink="http://www.w3.org/1999/xlink">
<g><path style="opacity:0.98" fill="#0077ff" d="M 111.5,-0.5 C 122.167,-0.5 132.833,-0.5 143.5,-0.5C 197.548,8.7041 233.382,39.3708 251,91.5C 252.715,98.2585 254.215,104.925 255.5,111.5C 255.5,122.167 255.5,132.833 255.5,143.5C 246.296,197.548 215.629,233.382 163.5,251C 156.741,252.715 150.075,254.215 143.5,255.5C 132.833,255.5 122.167,255.5 111.5,255.5C 57.4517,246.296 21.6184,215.629 4,163.5C 2.28494,156.741 0.784944,150.075 -0.5,143.5C -0.5,132.833 -0.5,122.167 -0.5,111.5C 8.7041,57.4517 39.3708,21.6184 91.5,4C 98.2585,2.28494 104.925,0.784944 111.5,-0.5 Z M 107.5,86.5 C 116.506,86.3336 125.506,86.5002 134.5,87C 136.848,87.3459 138.681,88.5125 140,90.5C 140.893,93.433 141.393,96.433 141.5,99.5C 140.03,109.214 140.196,118.881 142,128.5C 142.739,129.574 143.739,130.241 145,130.5C 149.321,127.512 152.988,123.846 156,119.5C 161.562,110.208 166.729,100.708 171.5,91C 182.88,90.1888 194.213,90.3554 205.5,91.5C 206.749,95.3513 206.249,99.0179 204,102.5C 195.549,113.779 187.715,125.445 180.5,137.5C 186.071,145.576 192.571,152.91 200,159.5C 201.667,161.833 203.333,164.167 205,166.5C 207.871,171.558 206.705,175.058 201.5,177C 191.772,177.891 182.106,177.557 172.5,176C 164.902,170.406 157.902,164.073 151.5,157C 148.873,154.983 146.373,155.15 144,157.5C 142.453,162.784 141.12,168.118 140,173.5C 139.5,174.667 138.667,175.5 137.5,176C 114.215,178.772 95.3818,170.938 81,152.5C 68.2963,135.104 57.6296,116.437 49,96.5C 48.5045,94.5273 48.3379,92.5273 48.5,90.5C 58.9229,89.4729 69.2562,89.9729 79.5,92C 84.685,102.871 90.5184,113.371 97,123.5C 99.1078,126.78 101.941,129.113 105.5,130.5C 106.442,130.392 107.275,130.059 108,129.5C 109.044,127.285 109.71,124.952 110,122.5C 110.667,115.5 110.667,108.5 110,101.5C 109.64,99.3921 108.973,97.3921 108,95.5C 105.681,94.1784 103.514,92.6784 101.5,91C 102.973,88.767 104.973,87.267 107.5,86.5 Z"/></g>
</svg>
